<mxfile host="app.diagrams.net" agent="Mozilla/5.0 (X11; Linux x86_64) AppleWebKit/537.36 (KHTML, like Gecko) Chrome/131.0.0.0 Safari/537.36" version="25.0.3">
  <diagram name="Page-1" id="DVSggi2bp6P89rv-KNos">
    <mxGraphModel dx="2435" dy="754" grid="0" gridSize="10" guides="1" tooltips="1" connect="1" arrows="1" fold="1" page="1" pageScale="1" pageWidth="827" pageHeight="1169" math="0" shadow="0">
      <root>
        <mxCell id="0" />
        <mxCell id="1" parent="0" />
        <mxCell id="UNmkh0mGvow3Rj033gjP-1" value="Pilotage" style="rounded=0;whiteSpace=wrap;html=1;" vertex="1" parent="1">
          <mxGeometry x="144" y="176" width="666" height="66" as="geometry" />
        </mxCell>
        <mxCell id="UNmkh0mGvow3Rj033gjP-12" style="edgeStyle=orthogonalEdgeStyle;rounded=0;orthogonalLoop=1;jettySize=auto;html=1;exitX=0;exitY=0.5;exitDx=0;exitDy=0;" edge="1" parent="1" source="UNmkh0mGvow3Rj033gjP-2" target="UNmkh0mGvow3Rj033gjP-11">
          <mxGeometry relative="1" as="geometry" />
        </mxCell>
        <mxCell id="UNmkh0mGvow3Rj033gjP-2" value="Architecture" style="rounded=0;whiteSpace=wrap;html=1;" vertex="1" parent="1">
          <mxGeometry x="144" y="262" width="120" height="60" as="geometry" />
        </mxCell>
        <mxCell id="UNmkh0mGvow3Rj033gjP-3" value="Outils" style="rounded=0;whiteSpace=wrap;html=1;" vertex="1" parent="1">
          <mxGeometry x="144" y="349" width="120" height="60" as="geometry" />
        </mxCell>
        <mxCell id="UNmkh0mGvow3Rj033gjP-4" value="N1&lt;span style=&quot;white-space: pre;&quot;&gt;&#x9;&lt;/span&gt;" style="rounded=0;whiteSpace=wrap;html=1;" vertex="1" parent="1">
          <mxGeometry x="291" y="262" width="106" height="148" as="geometry" />
        </mxCell>
        <mxCell id="UNmkh0mGvow3Rj033gjP-5" value="N2" style="rounded=0;whiteSpace=wrap;html=1;" vertex="1" parent="1">
          <mxGeometry x="418" y="261" width="107" height="148" as="geometry" />
        </mxCell>
        <mxCell id="UNmkh0mGvow3Rj033gjP-6" value="N3" style="rounded=0;whiteSpace=wrap;html=1;" vertex="1" parent="1">
          <mxGeometry x="560" y="261" width="109" height="148" as="geometry" />
        </mxCell>
        <mxCell id="UNmkh0mGvow3Rj033gjP-7" value="Context" style="rounded=0;whiteSpace=wrap;html=1;" vertex="1" parent="1">
          <mxGeometry x="144" y="436" width="666" height="66" as="geometry" />
        </mxCell>
        <mxCell id="UNmkh0mGvow3Rj033gjP-8" value="Consolidation &amp;amp; Reporting" style="rounded=0;whiteSpace=wrap;html=1;" vertex="1" parent="1">
          <mxGeometry x="696" y="261" width="109" height="148" as="geometry" />
        </mxCell>
        <mxCell id="UNmkh0mGvow3Rj033gjP-9" value="Validation techniques &amp;amp; orga du SOC" style="text;html=1;align=center;verticalAlign=middle;resizable=0;points=[];autosize=1;strokeColor=none;fillColor=none;" vertex="1" parent="1">
          <mxGeometry x="140" y="135" width="216" height="26" as="geometry" />
        </mxCell>
        <mxCell id="UNmkh0mGvow3Rj033gjP-10" style="edgeStyle=orthogonalEdgeStyle;rounded=0;orthogonalLoop=1;jettySize=auto;html=1;exitX=0;exitY=0.5;exitDx=0;exitDy=0;entryX=0.019;entryY=0.538;entryDx=0;entryDy=0;entryPerimeter=0;" edge="1" parent="1" source="UNmkh0mGvow3Rj033gjP-1" target="UNmkh0mGvow3Rj033gjP-9">
          <mxGeometry relative="1" as="geometry" />
        </mxCell>
        <mxCell id="UNmkh0mGvow3Rj033gjP-11" value="DÃ©finition technique&amp;nbsp;&lt;div&gt;&amp;amp;&amp;nbsp;&lt;/div&gt;&lt;div&gt;Archi des solutions du SOC&lt;/div&gt;" style="text;html=1;align=center;verticalAlign=middle;resizable=0;points=[];autosize=1;strokeColor=none;fillColor=none;" vertex="1" parent="1">
          <mxGeometry x="-29" y="267" width="165" height="55" as="geometry" />
        </mxCell>
      </root>
    </mxGraphModel>
  </diagram>
</mxfile>
